<?xml version="1.0" encoding="utf-8"?>
<svg height="64" width="64" xmlns="http://www.w3.org/2000/svg" viewBox="0 0 228 228" xmlns:bx="https://boxy-svg.com"><defs><linearGradient bx:pinned="true" id="color-0"><stop style="stop-color: #bdc3c7;" offset="0"/><stop style="stop-color: #2c3e50;" offset="1"/></linearGradient><linearGradient id="color-0-0" href="#color-0" gradientUnits="userSpaceOnUse" x1="124.382" y1="-26.019" x2="124.382" y2="216.475" spreadMethod="pad" gradientTransform="matrix(0.679213, 0.664289, -0.994882, 1.012133, 71.314285, -20.365182)"/><bx:export><bx:file format="svg"/></bx:export></defs><linearGradient id="a"><stop offset="0.18" stop-color="#0052cc"/><stop offset="1" stop-color="#2684ff"/></linearGradient><linearGradient id="b" x1="98.031%" x2="58.888%" y1=".161%" y2="40.766%" href="#a"/><linearGradient id="c" x1="100.665%" x2="55.402%" y1=".455%" y2="44.727%" href="#a"/><rect x="-0.005" width="228" height="228" style="fill: white; paint-order: fill; stroke-linejoin: round; stroke-linecap: round; stroke-width: 7px;"/><path d="M 212.856 5.197 L 108.519 5.197 C 108.519 31.21 129.606 52.297 155.619 52.297 L 174.839 52.297 L 174.839 70.854 C 174.856 96.843 195.919 117.907 221.908 117.924 L 221.908 14.249 C 221.908 9.251 217.856 5.197 212.856 5.197 Z" fill="#2684ff" style=""/><path d="M 161.231 57.185 L 56.894 57.185 C 56.911 83.173 77.974 104.237 103.963 104.254 L 123.183 104.254 L 123.183 122.871 C 123.216 148.86 144.294 169.909 170.283 169.909 L 170.283 66.238 C 170.283 61.238 166.23 57.186 161.231 57.186 L 161.231 57.185 Z" fill="url(#b)" style=""/><path d="M 109.575 109.142 L 5.238 109.142 C 5.238 135.155 26.326 156.242 52.337 156.242 L 71.618 156.242 L 71.618 174.798 C 71.635 200.763 92.661 221.818 118.627 221.867 L 118.627 118.194 C 118.627 113.195 114.574 109.142 109.575 109.142 Z" fill="url(#c)" style=""/><g transform="matrix(1, 0, 0, 1, -6.477882, 33.133209)"><path d="M 15.135 184.273 L 37.958 93.891 L 173.988 -42.138 L 241.546 25.42 L 105.517 161.45 L 15.135 184.273 Z M 54.391 103.021 L 40.698 158.71 L 96.387 145.017 L 215.983 25.42 L 173.988 -16.575 L 54.391 103.021 Z" style="stroke-width: 1; fill: black;"/><path d="M 86.776 158.273 C 81.299 135.448 63.041 117.19 40.216 111.713 L 44.781 94.366 C 73.996 101.67 96.819 124.493 104.123 153.708 L 86.776 158.273 Z" style="stroke-width: 1; fill: black;"/><path d="M 188.581 -2.63 L 201.49 10.279 L 82.714 129.145 L 69.806 116.254 L 188.581 -2.63 Z" style="stroke-width: 1; fill: black;"/><path d="M 33.51 166.09 L 59.985 159.699 C 57.247 149.656 49.944 142.353 39.901 139.615 L 33.51 166.09 Z" style="stroke-width: 1; fill: black;"/></g></svg>